<?xml version="1.0" encoding="UTF-8"?>
<svg version="1.1" xmlns="http://www.w3.org/2000/svg" width="1563" height="1563">
<path d="M0 0 C515.79 0 1031.58 0 1563 0 C1563 515.79 1563 1031.58 1563 1563 C1047.21 1563 531.42 1563 0 1563 C0 1047.21 0 531.42 0 0 Z " fill="#2563EB" transform="translate(0,0)"/>
<path d="M0 0 C1.09885529 -0.00012085 2.19771057 -0.0002417 3.3298645 -0.00036621 C30.21194924 0.04136448 57.21499575 1.74076964 83.46191406 7.89257812 C85.73489588 8.39950951 88.01212823 8.8254269 90.3046875 9.234375 C156.97662018 21.24903088 221.94164578 54.05942694 273.625 97.375 C275.41663667 98.81253739 277.2083042 100.25003632 279 101.6875 C289.04394599 109.93485283 298.29799931 118.96027594 307.5 128.125 C308.29664063 128.91696777 309.09328125 129.70893555 309.9140625 130.52490234 C314.69041029 135.31427289 319.22440048 140.24028623 323.625 145.375 C324.550536 146.42324324 325.47753682 147.47019561 326.40625 148.515625 C389.09157682 219.84049577 428.42429474 316.6667292 429.91576743 440.08139801 C429.91535402 444.9893147 429.92644689 449.89720893 429.93588257 454.80511475 C429.95237487 464.3844583 429.95798653 473.96377722 429.95910732 483.5431338 C429.96006241 491.33228213 429.96419545 499.12142244 429.97050858 506.91056824 C429.98808045 529.04408762 429.99735256 551.17758773 429.99584763 573.31111413 C429.99572776 575.09457357 429.99572776 575.09457357 429.99560547 576.9140625 C429.99552371 578.10450186 429.99544195 579.29494123 429.99535771 580.52145451 C429.99454356 599.84406718 430.01372426 619.16660213 430.0418822 638.48919231 C430.07063517 658.37825315 430.08442151 678.26727609 430.08269465 698.15635824 C430.08203211 709.30351653 430.0874663 720.45059308 430.10905075 731.59773254 C430.12729322 741.07848812 430.13158384 750.55912478 430.1180319 760.03989035 C430.11152085 764.87035821 430.1113181 769.7005981 430.1287384 774.53104401 C430.14455415 778.96220859 430.14151968 783.39296601 430.12417014 787.82412118 C430.12111913 789.4172195 430.12465999 791.01034888 430.13589029 792.60341054 C430.28082066 814.64118785 423.59913514 834.76473537 408.375 851.125 C390.86770621 867.34440091 370.27491184 873.00157018 346.9375 872.875 C346.11906616 872.87423462 345.30063232 872.87346924 344.45739746 872.87268066 C326.87629243 872.81402881 309.8793161 870.61755097 292.625 867.375 C291.6561084 867.19388672 290.6872168 867.01277344 289.68896484 866.82617188 C284.61468383 865.847951 279.62244851 864.69038533 274.625 863.375 C273.9753125 863.20564941 273.325625 863.03629883 272.65625 862.86181641 C267.59430595 861.520945 262.60485265 859.99267822 257.625 858.375 C256.72990723 858.08560547 255.83481445 857.79621094 254.91259766 857.49804688 C196.21168925 838.19857522 141.36310564 800.68809022 103.99462891 751.17724609 C102.58151235 749.31777614 101.14252261 747.48064202 99.69921875 745.64453125 C57.0538493 690.86238131 36.14976669 620.45781283 36.5625 551.5625 C36.56753176 550.08007966 36.57209166 548.59765764 36.57617188 547.11523438 C36.5870293 543.5351205 36.60419865 539.95507157 36.625 536.375 C40.88585989 537.02088711 44.3589001 538.49627181 48.25390625 540.31640625 C49.54965549 540.90664222 50.84589633 541.49579995 52.14257812 542.08398438 C54.15926495 543.00412061 56.17207329 543.93022489 58.17700195 544.87573242 C66.5904136 548.82794373 74.11031112 551.81071054 83.625 550.375 C87.09596857 549.10246144 87.09596857 549.10246144 89.625 547.375 C90.615 547.045 91.605 546.715 92.625 546.375 C93.74585312 544.0319191 93.74585312 544.0319191 94.625 541.375 C94.9653125 540.7975 95.305625 540.22 95.65625 539.625 C98.04784957 534.07031714 97.57322963 526.59797199 95.890625 520.87890625 C90.9427095 511.10856586 81.37148158 503.02722773 73.63671875 495.39453125 C73.03883041 494.80442261 72.44094208 494.21431396 71.82493591 493.60632324 C69.36700571 491.18499706 66.90632168 488.76664034 64.4362793 486.35766602 C45.91079798 468.26317877 45.91079798 468.26317877 45.50195217 461.27043724 C45.50287396 460.39473391 45.50379576 459.51903057 45.50474548 458.61679077 C45.50268349 457.11074028 45.50268349 457.11074028 45.50057983 455.57426453 C45.50417511 454.46871719 45.50777039 453.36316986 45.51147461 452.22412109 C45.51132858 451.06315414 45.51118256 449.90218719 45.5110321 448.70603943 C45.51173097 444.8534867 45.51952219 441.00098182 45.52734375 437.1484375 C45.52920802 434.48328571 45.53068105 431.81813659 45.53163147 429.15298462 C45.53474255 422.84545915 45.54295294 416.53795096 45.55298096 410.23043311 C45.56414902 403.05035645 45.5696543 395.87027898 45.57467639 388.6901958 C45.58513573 373.91845502 45.60273086 359.14672781 45.625 344.375 C48.150151 345.31558982 50.6747146 346.25770796 53.19897461 347.20068359 C53.90498558 347.46348618 54.61099655 347.72628876 55.33840179 347.99705505 C62.02740637 350.49825841 68.60595772 353.22815725 75.1875 356 C88.5797226 361.59730265 102.07583586 366.89443142 115.63244629 372.0790863 C119.63843017 373.61128613 123.640163 375.15392822 127.63847351 376.70603943 C156.29644406 387.8284381 185.10951456 398.83702087 214.5625 407.6875 C215.7390918 408.04231445 216.91568359 408.39712891 218.12792969 408.76269531 C235.84234967 414.21437573 235.84234967 414.21437573 253.828125 412.5703125 C259.16011767 409.20883886 262.26396175 403.40642976 264.2421875 397.546875 C266.21144839 386.37433364 264.81212117 376.15565442 258.75 366.625 C256.3186179 363.1780529 253.7666019 360.21010415 250.625 357.375 C250.13499512 356.92753418 249.64499023 356.48006836 249.14013672 356.01904297 C244.78040554 352.14501814 240.21130728 349.12783708 235.1875 346.1875 C227.09149868 341.34353948 219.31163462 336.15899471 211.58837891 330.74560547 C208.96404615 328.913598 206.3222958 327.10759989 203.68041992 325.30102539 C195.31592687 319.57816692 187.03099429 313.74600506 178.76171875 307.88671875 C176.64571995 306.38965927 174.52657948 304.89716813 172.40625 303.40625 C162.84774598 296.68252011 153.35455896 289.87288574 143.89111328 283.01611328 C140.13855206 280.29851831 136.3815875 277.58702514 132.625 274.875 C128.07720514 271.59111457 123.52990621 268.30654952 118.984375 265.01953125 C117.44796216 263.90879123 115.91150413 262.79811373 114.375 261.6875 C113.6214624 261.14279053 112.8679248 260.59808105 112.09155273 260.03686523 C108.18987282 257.21891429 104.28031582 254.4128432 100.35742188 251.62451172 C93.5000161 246.75013937 86.72025072 241.77594205 79.95581055 236.7734375 C73.62497232 232.0966364 67.25392496 227.47815763 60.85058594 222.90112305 C59.51322494 221.94117199 58.18353252 220.97039879 56.86369324 219.98649597 C54.64506295 218.34728154 54.64506295 218.34728154 52.27955627 216.93887329 C46.09399039 212.86228899 46.09399039 212.86228899 44.85046387 208.91874695 C44.61654348 205.98442106 44.66395257 203.17799765 44.81640625 200.23828125 C44.83388412 199.16362106 44.851362 198.08896088 44.86936951 196.98173523 C44.9327415 193.54776818 45.05729229 190.1195239 45.1875 186.6875 C45.31147448 182.204776 45.41091135 177.72174502 45.50390625 173.23828125 C45.52995438 172.145121 45.5560025 171.05196075 45.58283997 169.92567444 C45.75019262 160.67021167 45.05534125 151.64968127 43.88461304 142.47618103 C43.61950641 140.33053761 43.39518947 138.18396143 43.18310547 136.0324707 C41.10805894 115.20408869 35.06336308 89.41480765 18.2265625 75.375 C11.73939493 70.89217324 5.59236711 68.0431058 -2.375 69.375 C-15.78036474 74.01396175 -22.56063808 83.34928507 -28.625 95.55078125 C-31.192195 100.98567448 -32.87986987 106.56285 -34.375 112.375 C-34.72304688 113.64214844 -35.07109375 114.90929687 -35.4296875 116.21484375 C-40.51951197 135.12353012 -41.66453376 154.2868824 -41.12109375 173.7890625 C-41.07160311 175.97264133 -41.02278152 178.15623543 -40.97460938 180.33984375 C-40.90026613 183.69442843 -40.81067729 187.04521998 -40.67553711 190.39794922 C-39.94970975 209.17720587 -39.94970975 209.17720587 -43.40380859 214.50341797 C-45.97112252 216.57987195 -48.39164743 217.98023623 -51.375 219.375 C-52.57741621 220.21944262 -53.76298951 221.08893089 -54.921875 221.9921875 C-55.97890625 222.73726562 -57.0359375 223.48234375 -58.125 224.25 C-59.33465202 225.10674739 -60.54428696 225.96351889 -61.75390625 226.8203125 C-62.35734863 227.24602539 -62.96079102 227.67173828 -63.58251953 228.11035156 C-66.41420424 230.10818959 -69.23998121 232.11423679 -72.0625 234.125 C-72.6289624 234.52847656 -73.1954248 234.93195313 -73.77905273 235.34765625 C-78.78787502 238.92882989 -83.73825773 242.58712247 -88.6875 246.25 C-95.41015969 251.22321131 -102.18809472 256.10428303 -109.03271484 260.90795898 C-114.1540462 264.50456009 -119.24205874 268.14452122 -124.3125 271.8125 C-125.06039795 272.35342285 -125.8082959 272.8943457 -126.57885742 273.45166016 C-129.58645855 275.62847337 -132.59274317 277.80708601 -135.59716797 279.98828125 C-145.83424047 287.42027382 -156.14019246 294.74284468 -166.515625 301.98046875 C-170.91892775 305.05256058 -175.30525118 308.14798824 -179.6875 311.25 C-182.58180122 313.29384467 -185.47808635 315.33486022 -188.375 317.375 C-189.66398193 318.28354736 -189.66398193 318.28354736 -190.97900391 319.21044922 C-202.67545138 327.44204922 -214.45963126 335.49725064 -226.48681641 343.23950195 C-232.55093724 347.14809046 -238.48980122 351.20221692 -244.375 355.375 C-245.40625 356.096875 -246.4375 356.81875 -247.5 357.5625 C-255.22618132 364.23210951 -260.67666353 374.37395593 -261.68359375 384.46875 C-262.07683195 394.66911054 -259.71311255 402.3406119 -252.9375 410 C-247.84593172 414.48058009 -242.03847803 413.98947454 -235.56428528 413.60380554 C-231.83246415 413.21378723 -228.28989389 412.25702862 -224.6796875 411.26171875 C-223.86063431 411.04057404 -223.04158112 410.81942932 -222.19770813 410.59158325 C-212.55811446 407.94375424 -203.05630984 404.87401006 -193.5625 401.75 C-192.62558319 401.44309235 -191.68866638 401.13618469 -190.72335815 400.81997681 C-174.12935343 395.37808451 -157.68832323 389.61205807 -141.375 383.375 C-140.56569031 383.06606812 -139.75638062 382.75713623 -138.92254639 382.43884277 C-109.3121688 371.13111413 -79.7239432 359.72638673 -50.55371094 347.31860352 C-49.63364258 346.92987061 -48.71357422 346.5411377 -47.765625 346.140625 C-46.96157227 345.79805664 -46.15751953 345.45548828 -45.32910156 345.10253906 C-43.375 344.375 -43.375 344.375 -41.375 344.375 C-41.21104787 359.70048171 -41.08782921 375.02592284 -41.0123148 390.35208607 C-40.97631055 397.46931695 -40.92727709 404.58600107 -40.84692383 411.70288086 C-40.7768727 417.91029282 -40.73192674 424.1173086 -40.71638054 430.32510489 C-40.70730079 433.6085176 -40.68241642 436.89054151 -40.6348896 440.17365456 C-40.58379663 443.85057339 -40.57708828 447.5251738 -40.58032227 451.20239258 C-40.54257187 452.81217735 -40.54257187 452.81217735 -40.50405884 454.45448303 C-40.60395044 465.00567059 -46.02772891 472.58868244 -53.37109375 479.796875 C-54.70430664 481.11751953 -54.70430664 481.11751953 -56.06445312 482.46484375 C-56.97130859 483.34269531 -57.87816406 484.22054688 -58.8125 485.125 C-59.71548828 486.01832031 -60.61847656 486.91164063 -61.54882812 487.83203125 C-65.49484402 491.71232784 -69.47244432 495.50850641 -73.67578125 499.109375 C-77.1662381 502.11672823 -80.18631155 505.33306172 -83.125 508.875 C-83.58003906 509.40480469 -84.03507812 509.93460938 -84.50390625 510.48046875 C-89.63106502 516.58282198 -92.94022383 521.63545073 -92.8125 529.9375 C-92.81121094 531.19691406 -92.80992187 532.45632813 -92.80859375 533.75390625 C-92.0356292 540.20920476 -89.18912031 544.14796753 -84.375 548.375 C-79.28153668 551.44150737 -74.13049726 551.18640262 -68.375 550.375 C-62.47181829 548.62672258 -56.89735617 545.93403569 -51.3125 543.375 C-49.07265965 542.37052682 -46.83020082 541.37235596 -44.58534241 540.37915039 C-43.1995495 539.76376097 -41.81706539 539.14085096 -40.4384613 538.50952148 C-37.56109132 537.21232682 -35.57118937 536.375 -32.375 536.375 C-31.86150466 574.2551559 -34.30623524 612.17579248 -46.375 648.375 C-46.67132324 649.28572266 -46.96764648 650.19644531 -47.27294922 651.13476562 C-66.11929061 708.77780047 -100.78334807 764.07166241 -149.375 801.375 C-150.67491634 802.42362885 -151.97293349 803.47461434 -153.26953125 804.52734375 C-178.00248546 824.43906478 -205.83845258 839.64350351 -235.24316406 851.51123047 C-237.06370984 852.24887259 -238.87299144 853.01421384 -240.6796875 853.78515625 C-259.0307537 861.3543626 -278.8527682 865.52440431 -298.35107422 868.85498047 C-300.25089892 869.18169019 -302.14878225 869.52012842 -304.04345703 869.87548828 C-316.99879561 872.30006974 -329.85689539 872.6826357 -343 872.75 C-343.82101196 872.75794586 -344.64202393 872.76589172 -345.48791504 872.77407837 C-355.22452332 872.84657051 -364.01498239 872.38876348 -373.375 869.375 C-374.53773438 869.03339844 -375.70046875 868.69179687 -376.8984375 868.33984375 C-395.36032007 861.68850798 -410.72679839 847.49367343 -419.13671875 829.77734375 C-422.94300014 821.16021759 -425.62296274 813.36443218 -425.62947559 803.89836121 C-425.63268207 803.18720382 -425.63588855 802.47604643 -425.63919219 801.74333882 C-425.64746103 799.37202186 -425.64157885 797.00095954 -425.63569641 794.62963867 C-425.63871859 792.90742102 -425.6426084 791.18520471 -425.64728898 789.46299076 C-425.6575706 784.73871611 -425.65538664 780.01451735 -425.65110838 775.29023647 C-425.64864121 770.19102091 -425.65765566 765.09182362 -425.66514587 759.99261475 C-425.67789889 750.00198541 -425.6796855 740.01138294 -425.67734561 730.02074683 C-425.67556158 721.89184942 -425.67731395 713.76296016 -425.68157005 705.63406372 C-425.68216524 704.47642527 -425.68276043 703.31878682 -425.68337366 702.12606841 C-425.68458545 699.77403823 -425.68579959 697.42200806 -425.68701603 695.06997788 C-425.69789562 673.004325 -425.69572814 650.93868739 -425.68963119 628.87303364 C-425.68447175 608.72710696 -425.69569097 588.58122877 -425.71472941 568.43531168 C-425.73415096 547.72407066 -425.74235561 527.01285253 -425.73860615 506.30160236 C-425.73669935 494.68448099 -425.73912986 483.06740078 -425.75332069 471.45028687 C-425.7652912 461.55070781 -425.76657693 451.65119523 -425.75453053 441.75161517 C-425.74867899 436.70967972 -425.74743754 431.66786548 -425.75953293 426.62593842 C-425.80420185 406.65607977 -425.66277736 387.13525566 -422.375 367.375 C-422.14432947 365.85850394 -421.91643492 364.34158219 -421.69174671 362.82418823 C-421.14702355 359.1873657 -420.55450222 355.56270182 -419.9375 351.9375 C-419.61338135 350.02590088 -419.61338135 350.02590088 -419.28271484 348.07568359 C-417.66870164 338.73346547 -415.87247167 329.52095526 -413.375 320.375 C-413.14087402 319.50842773 -412.90674805 318.64185547 -412.66552734 317.74902344 C-396.27304835 257.74946708 -367.46301161 201.96683841 -327.375 154.375 C-326.94815918 153.86324219 -326.52131836 153.35148438 -326.08154297 152.82421875 C-313.97352473 138.32401256 -301.19386929 123.85328208 -286.85546875 111.51171875 C-284.88871484 109.81752286 -282.93575927 108.11068936 -280.98828125 106.39453125 C-273.01531917 99.38934917 -264.90141165 92.69730524 -256.375 86.375 C-255.72225098 85.88563965 -255.06950195 85.3962793 -254.39697266 84.89208984 C-198.78349763 43.29533506 -133.19894121 15.75104395 -64.625 5.125 C-63.42322617 4.93741119 -63.42322617 4.93741119 -62.19717407 4.74603271 C-41.45995646 1.54235294 -20.98769042 -0.03579583 0 0 Z " fill="#FEFEFE" transform="translate(779.375,344.625)"/>
</svg>
